<svg width="224" height="44" viewBox="0 0 224 44" fill="none" xmlns="http://www.w3.org/2000/svg">
<g clip-path="url(#clip0_421_244)">
<path d="M27.2436 21.5776C27.2458 21.5673 27.2461 21.5571 27.2489 21.5469C27.7024 19.914 27.6969 18.1863 27.2328 16.5564C26.7688 14.9265 25.8645 13.4584 24.6208 12.3157C24.6177 12.3129 24.6156 12.3096 24.6125 12.3067H18.6266C18.9375 13.5472 19.0946 14.8217 19.0944 16.1011C19.0944 22.222 15.5333 27.7356 9.96777 30.324C11.9131 31.481 14.0054 32.3665 16.1874 32.9564C17.7644 33.3887 19.3735 33.6925 20.9989 33.865C20.9989 33.8316 20.9985 33.7976 20.9985 33.7612C20.9989 31.3759 21.5661 29.0253 22.6525 26.9057C23.7389 24.7862 25.3131 22.9593 27.2436 21.5776Z" fill="white"/>
<path d="M18.152 16.1011C18.1521 14.8196 17.9838 13.5438 17.6517 12.3067H0C0.108359 18.6189 2.38324 23.9743 6.59548 27.8187C7.35284 28.5081 8.15918 29.1408 9.00806 29.7119C9.01038 29.7109 9.01229 29.7093 9.01469 29.7083C14.5654 27.3924 18.152 22.0509 18.152 16.1011ZM8.10446 19.0788C7.81331 19.0731 7.53029 18.981 7.29091 18.814C7.05153 18.647 6.86645 18.4125 6.75889 18.1399C6.65133 17.8674 6.62608 17.5689 6.68631 17.2819C6.74654 16.9949 6.88956 16.7323 7.09744 16.5269C7.30532 16.3215 7.56879 16.1825 7.8548 16.1273C8.14081 16.0722 8.43662 16.1033 8.70513 16.2169C8.97363 16.3304 9.20287 16.5213 9.36408 16.7655C9.52528 17.0098 9.61128 17.2966 9.61129 17.5899C9.60746 17.9886 9.44656 18.3694 9.16399 18.6486C8.88141 18.9278 8.50029 19.0825 8.10446 19.0788Z" fill="white"/>
<path d="M59.7696 1.60124C58.8513 0.938545 57.6206 0.963597 56.9775 1.03508C57.7768 6.31171 57.5045 9.83342 57.2116 11.6646C58.726 10.1635 61.2854 7.12956 60.9736 4.02127C60.8622 2.91167 60.4571 2.09742 59.7696 1.60124Z" fill="white"/>
<path d="M28.3726 20.8418C29.7418 20.0341 31.2314 19.4541 32.784 19.1243C32.7763 17.1985 32.3711 15.2953 31.5941 13.5357C31.4103 13.1167 31.2039 12.705 30.9811 12.3067H25.9414C26.9651 13.449 27.7163 14.8117 28.1377 16.2909C28.559 17.77 28.6394 19.3266 28.3726 20.8418Z" fill="#176D98"/>
<path d="M32.4569 13.152C33.2641 14.9809 33.6954 16.9555 33.7247 18.9569C36.4225 18.564 39.1757 18.9266 41.6826 20.0047C44.1895 21.0828 46.3535 22.835 47.9376 25.0694C48.0834 24.9437 48.229 24.8179 48.3733 24.6898C52.9159 20.6593 56.2954 15.7722 56.9783 12.3066H32.0537C32.1965 12.5844 32.3316 12.8665 32.4569 13.152Z" fill="white"/>
<path d="M35.85 25.391C34.6335 25.387 33.4285 25.629 32.3066 26.1026C31.1846 26.5762 30.1684 27.2718 29.3183 28.1482C27.7755 29.7119 26.8691 31.8002 26.7773 34.0027C27.3411 33.9712 27.909 33.9272 28.4809 33.8707C33.3701 33.3845 38.3248 31.6175 42.8894 28.7836C41.1971 26.6203 38.6627 25.391 35.85 25.391Z" fill="white"/>
<path d="M35.8506 19.7527C28.1818 19.7527 21.9424 26.0369 21.9424 33.7613C21.9424 33.8319 21.943 33.8943 21.944 33.9543C23.2376 34.0553 24.5356 34.085 25.8324 34.0431C25.9143 31.5768 26.9195 29.2331 28.6462 27.4826C29.5839 26.5159 30.7048 25.7486 31.9423 25.2261C33.1799 24.7037 34.509 24.4368 35.8508 24.4413C38.9915 24.4413 41.8192 25.8317 43.691 28.2741C44.9105 27.4748 46.086 26.6094 47.2124 25.6817C45.9285 23.8491 44.2263 22.354 42.2491 21.3222C40.2719 20.2905 38.0775 19.7522 35.8506 19.7527Z" fill="#176D98"/>
</g>
<path d="M71.4288 29.4224C70.6544 27.9675 70.2672 26.2544 70.2672 24.2832C70.2672 22.4528 70.5723 20.8219 71.1824 19.3904C71.816 17.9355 72.4965 16.7739 73.224 15.9056C73.9749 15.0139 74.8784 14.3099 75.9344 13.7936C77.0139 13.2539 78.152 12.984 79.3488 12.984C81.0384 12.984 82.3877 13.4651 83.3968 14.4272L88.008 10.5552C87.9141 9.73387 87.8672 8.92427 87.8672 8.1264C87.8672 2.9168 89.24 0.312 91.9856 0.312C92.6896 0.312 93.2411 0.5584 93.64 1.0512C94.0389 1.544 94.2619 2.1776 94.3088 2.952C94.3323 4.0784 93.9685 5.2048 93.2176 6.3312C92.4901 7.4576 91.4107 8.6896 89.9792 10.0272C90.7067 14.8848 91.0704 18.1936 91.0704 19.9536C91.0704 21.6901 90.8475 23.3797 90.4016 25.0224C89.9557 26.6416 89.2752 28.12 88.36 29.4576C87.4448 30.7952 86.1893 31.8395 84.5936 32.5904C82.9979 33.3413 81.144 33.7168 79.032 33.7168C76.0048 33.7168 73.7168 32.6843 72.168 30.6192C71.7456 32.0976 71.5344 33.7755 71.5344 35.6528C71.5344 37.5536 72.0272 39.2549 73.0128 40.7568C74.0219 42.2821 75.3125 43.0448 76.8848 43.0448C77.0021 43.0448 77.0608 43.1621 77.0608 43.3968C77.0843 43.6315 77.0256 43.7488 76.8848 43.7488C75.0309 43.7488 73.5056 42.8688 72.3088 41.1088C71.112 39.3723 70.5136 37.4363 70.5136 35.3008C70.5136 33.1653 70.8187 31.2059 71.4288 29.4224ZM83.9952 15.096C84.6523 15.9877 84.9808 16.9968 84.9808 18.1232C84.9808 19.2261 84.8048 20.2235 84.4528 21.1152C84.1243 21.9835 83.5259 22.7579 82.6576 23.4384C81.8128 24.0955 80.8272 24.424 79.7008 24.424C79.4661 24.424 79.2784 24.3653 79.1376 24.248C79.0203 24.1307 78.9381 23.9429 78.8912 23.6848C79.9003 23.6848 80.8272 23.2155 81.672 22.2768C82.8923 20.9627 83.5024 19.4843 83.5024 17.8416C83.5024 17.1611 83.3733 16.504 83.1152 15.8704C80.4869 18.1232 78.2693 20.3291 76.4624 22.488C74.6555 24.6469 73.3296 26.9936 72.4848 29.528C73.8224 31.6869 75.9227 32.7664 78.7856 32.7664C80.5456 32.7664 82.0827 32.3909 83.3968 31.64C84.7344 30.9125 85.7787 29.9152 86.5296 28.648C88.008 26.1605 88.7472 23.1451 88.7472 19.6016C88.7472 18.7333 88.536 16.0933 88.1136 11.6816L83.9952 15.096ZM82.5872 15.1312C81.8363 14.3333 80.8037 13.9344 79.4896 13.9344C78.1755 13.9344 76.9904 14.2512 75.9344 14.8848C73.9867 16.0581 72.5904 18.0293 71.7456 20.7984C71.3701 21.9717 71.1824 23.1803 71.1824 24.424C71.1824 25.8085 71.4053 27.0875 71.8512 28.2608C73.4704 24.2011 77.0491 19.8245 82.5872 15.1312ZM89.6624 6.3312C89.6624 6.9648 89.7211 7.8096 89.8384 8.8656C92.1616 6.58933 93.3232 4.66507 93.3232 3.0928C93.3232 1.87253 92.8773 1.2624 91.9856 1.2624C90.4368 1.2624 89.6624 2.952 89.6624 6.3312ZM95.5423 29C94.8852 29 94.5567 28.4955 94.5567 27.4864C94.5567 26.9467 95.2138 23.016 96.5279 15.6944C96.5983 15.2016 96.8095 14.9552 97.1615 14.9552C97.5839 14.9552 97.9007 15.2603 98.1119 15.8704C98.2292 16.1989 98.2879 16.5627 98.2879 16.9616C98.2879 17.3371 98.241 17.7477 98.1471 18.1936L97.6191 20.8688H97.8303C99.8954 16.2224 101.89 13.8992 103.814 13.8992C104.471 13.8992 104.988 14.1339 105.363 14.6032C105.762 15.0725 105.962 15.6357 105.962 16.2928C105.962 17.5131 105.774 19.0384 105.398 20.8688H105.539C107.534 16.5275 109.493 14.3568 111.418 14.3568C112.051 14.3568 112.567 14.5915 112.966 15.0608C113.365 15.5301 113.565 16.152 113.565 16.9264C113.565 17.7008 113.26 19.3435 112.65 21.8544C112.063 24.3653 111.77 26.1371 111.77 27.1696C111.77 28.6949 112.051 29.4576 112.614 29.4576C112.614 29.6219 112.509 29.7861 112.298 29.9504C112.086 30.1147 111.84 30.1968 111.558 30.1968C110.197 30.1968 109.517 29.1291 109.517 26.9936C109.517 25.656 109.857 23.7317 110.538 21.2208C111.218 18.6864 111.558 17.0672 111.558 16.3632C111.558 15.6357 111.324 15.272 110.854 15.272C109.986 15.272 108.965 16.328 107.792 18.44C106.642 20.5285 105.715 22.5349 105.011 24.4592C104.331 26.3835 103.932 27.6272 103.814 28.1904C103.697 28.7301 103.486 29 103.181 29C102.524 29 102.195 28.4955 102.195 27.4864C102.195 27.1109 102.395 25.7851 102.794 23.5088C103.568 19.3317 103.955 16.8443 103.955 16.0464C103.955 15.2251 103.72 14.8144 103.251 14.8144C102.618 14.8144 101.878 15.4715 101.034 16.7856C100.189 18.0763 99.426 19.5781 98.7455 21.2912C97.2671 24.9051 96.3988 27.24 96.1407 28.296C96.0468 28.7653 95.8474 29 95.5423 29ZM118.755 29.0352C116.901 29.0352 115.974 27.6389 115.974 24.8464C115.974 23.2272 116.397 21.4555 117.242 19.5312C118.415 16.9264 119.905 15.2251 121.712 14.4272C122.346 14.1691 122.979 14.04 123.613 14.04C124.27 14.04 124.786 14.2277 125.162 14.6032C125.537 14.9787 125.725 15.4011 125.725 15.8704C125.725 16.0816 125.607 16.1872 125.373 16.1872C125.162 16.1637 125.056 16.0464 125.056 15.8352C125.056 15.624 124.939 15.4363 124.704 15.272C124.493 15.0843 124.176 14.9904 123.754 14.9904C122.275 14.9904 120.938 16.3163 119.741 18.968C118.614 21.432 118.051 23.7669 118.051 25.9728C118.051 27.3339 118.344 28.0144 118.931 28.0144C119.541 28.0144 120.269 27.5099 121.114 26.5008C121.982 25.4683 122.78 24.2715 123.507 22.9104C125.079 20.0475 126.006 18.2053 126.288 17.384C126.57 16.5627 126.875 16.152 127.203 16.152C127.79 16.152 128.083 16.6448 128.083 17.6304C128.083 17.9355 128.048 18.2875 127.978 18.6864C127.203 22.4411 126.781 24.6117 126.71 25.1984C126.663 25.7851 126.64 26.2075 126.64 26.4656C126.64 27.592 126.91 28.1552 127.45 28.1552C128.06 28.1552 128.916 27.3456 130.019 25.7264C131.122 24.1072 132.072 22.488 132.87 20.8688L134.067 18.44H135.018C134.877 18.7216 134.689 19.1088 134.454 19.6016C134.243 20.0709 133.809 20.9275 133.152 22.1712C132.495 23.3915 131.861 24.4709 131.251 25.4096C130.664 26.3483 129.996 27.2048 129.245 27.9792C128.517 28.7301 127.884 29.1056 127.344 29.1056C125.607 29.1056 124.739 27.8384 124.739 25.304C124.739 24.4592 124.833 23.4736 125.021 22.3472H124.774C122.381 26.8059 120.374 29.0352 118.755 29.0352ZM133.519 29C132.862 29 132.533 28.4955 132.533 27.4864C132.533 26.9467 133.19 23.016 134.505 15.6944C134.598 15.2016 134.81 14.9552 135.138 14.9552C135.561 14.9552 135.877 15.2603 136.089 15.8704C136.206 16.1989 136.265 16.5627 136.265 16.9616C136.265 17.3371 136.218 17.7477 136.124 18.1936L135.561 21.08H135.737C137.755 16.3867 139.609 14.04 141.298 14.04C142.237 14.04 142.859 14.4976 143.164 15.4128C143.281 15.7648 143.34 16.1755 143.34 16.6448C143.34 17.0907 143.211 17.5835 142.953 18.1232C142.507 19.0384 141.838 19.496 140.946 19.496C140.758 19.496 140.606 19.4491 140.489 19.3552C140.395 19.2613 140.336 19.1323 140.313 18.968C140.5 18.968 140.747 18.6277 141.052 17.9472C141.357 17.2432 141.533 16.5979 141.58 16.0112C141.627 15.4245 141.427 15.0843 140.981 14.9904C140.16 14.9904 139.186 16.0581 138.06 18.1936C136.933 20.3291 136.03 22.3707 135.349 24.3184C134.669 26.2661 134.27 27.5333 134.153 28.12C134.035 28.7067 133.824 29 133.519 29ZM144.37 13.6176C144.37 13.3595 144.534 13.2304 144.863 13.2304H146.693C146.81 12.7611 146.963 12.1744 147.151 11.4704L147.643 9.64C147.784 9.10027 147.902 8.60747 147.995 8.1616C148.113 7.71573 148.324 7.4928 148.629 7.4928C149.028 7.4928 149.31 7.79787 149.474 8.408C149.544 8.66613 149.579 8.98293 149.579 9.3584C149.579 9.73387 149.509 10.2149 149.368 10.8016L148.699 13.2304H150.882C151.093 13.2304 151.234 13.3008 151.304 13.4416C151.398 13.5824 151.398 13.7232 151.304 13.864C151.234 13.9813 151.093 14.04 150.882 14.04H148.488C147.033 19.5077 146.306 23.3797 146.306 25.656C146.306 27.3221 146.681 28.1552 147.432 28.1552C148.042 28.1552 148.899 27.3456 150.002 25.7264C151.105 24.1072 152.055 22.488 152.853 20.8688L154.05 18.44H155C154.859 18.7216 154.672 19.1088 154.437 19.6016C154.226 20.0709 153.792 20.9275 153.135 22.1712C152.478 23.3915 151.844 24.4709 151.234 25.4096C150.647 26.3483 149.978 27.2048 149.227 27.9792C148.5 28.7301 147.819 29.1056 147.186 29.1056C146.552 29.1056 146.001 28.9061 145.531 28.5072C145.086 28.0848 144.804 27.4981 144.687 26.7472C144.546 25.9728 144.475 25.1867 144.475 24.3888C144.475 22.5349 145.133 19.0853 146.447 14.04H144.863C144.675 14.04 144.546 13.9931 144.475 13.8992C144.405 13.7819 144.37 13.688 144.37 13.6176ZM170.519 19.496C170.519 21.5845 170.848 22.6288 171.505 22.6288C171.481 22.9104 171.282 23.0512 170.906 23.0512C170.32 23.0512 169.874 22.6992 169.569 21.9952C169.287 21.2677 169.146 20.3643 169.146 19.2848C168.208 19.6837 167.234 19.9184 166.225 19.9888C164.957 27.8971 163.878 33.3061 162.986 36.216C161.625 40.792 159.994 43.08 158.093 43.08C156.826 43.08 156.193 42.4229 156.193 41.1088C156.193 40.5221 156.322 39.7947 156.58 38.9264C157.307 36.4859 158.657 33.9397 160.628 31.288C161.543 30.0677 162.341 29.1877 163.021 28.648C163.162 27.7563 163.385 26.3483 163.69 24.424C163.995 22.4763 164.23 20.9979 164.394 19.9888H163.444C163.327 19.9888 163.268 19.8832 163.268 19.672C163.268 19.4373 163.327 19.32 163.444 19.32H164.5C165.65 11.9749 166.87 6.91787 168.161 4.1488C168.653 3.04587 169.24 2.13067 169.921 1.4032C170.601 0.675733 171.34 0.312 172.138 0.312C173.617 0.312 174.356 1.39147 174.356 3.5504C174.356 5.3104 173.816 7.2112 172.737 9.2528C171.423 11.7168 169.85 13.2304 168.02 13.7936L167.21 13.9696C166.999 15.1195 166.706 16.8912 166.33 19.2848C167.316 19.2144 168.266 18.9563 169.181 18.5104C169.299 17.2667 169.58 16.2107 170.026 15.3424C170.496 14.4507 171.082 14.0048 171.786 14.0048C172.349 14.0048 172.631 14.3333 172.631 14.9904C172.631 16.2341 171.939 17.384 170.554 18.44C170.531 18.792 170.519 19.144 170.519 19.496ZM171.821 8.76C172.877 6.7184 173.405 4.93493 173.405 3.4096C173.405 1.88427 173.03 1.1216 172.279 1.1216C171.223 1.1216 170.32 2.15413 169.569 4.2192C168.818 6.2608 168.09 9.20587 167.386 13.0544C169.076 12.6789 170.554 11.2475 171.821 8.76ZM162.845 29.6688C161.508 31.0533 160.229 33.0363 159.009 35.6176C157.788 38.1989 157.178 39.9237 157.178 40.792C157.178 41.6837 157.436 42.1296 157.953 42.1296C159.032 42.1296 159.947 41.0501 160.698 38.8912C161.449 36.7323 162.165 33.6581 162.845 29.6688ZM170.66 17.4896C171.082 17.0907 171.399 16.6683 171.61 16.2224C171.845 15.7765 171.962 15.4245 171.962 15.1664C171.962 14.8848 171.892 14.7205 171.751 14.6736C171.235 14.6736 170.871 15.6123 170.66 17.4896ZM175.517 29.0352C173.663 29.0352 172.736 27.6389 172.736 24.8464C172.736 23.2272 173.158 21.4555 174.003 19.5312C175.177 16.9264 176.667 15.2251 178.474 14.4272C179.107 14.1691 179.741 14.04 180.374 14.04C181.032 14.04 181.548 14.2277 181.923 14.6032C182.299 14.9787 182.486 15.4011 182.486 15.8704C182.486 16.0816 182.369 16.1872 182.134 16.1872C181.923 16.1637 181.818 16.0464 181.818 15.8352C181.818 15.624 181.7 15.4363 181.466 15.272C181.254 15.0843 180.938 14.9904 180.515 14.9904C179.037 14.9904 177.699 16.3163 176.502 18.968C175.376 21.432 174.813 23.7669 174.813 25.9728C174.813 27.3339 175.106 28.0144 175.693 28.0144C176.303 28.0144 177.03 27.5099 177.875 26.5008C178.744 25.4683 179.541 24.2715 180.269 22.9104C181.841 20.0475 182.768 18.2053 183.05 17.384C183.331 16.5627 183.636 16.152 183.965 16.152C184.552 16.152 184.845 16.6448 184.845 17.6304C184.845 17.9355 184.81 18.2875 184.739 18.6864C183.965 22.4411 183.542 24.6117 183.472 25.1984C183.425 25.7851 183.402 26.2075 183.402 26.4656C183.402 27.592 183.672 28.1552 184.211 28.1552C184.821 28.1552 185.678 27.3456 186.781 25.7264C187.884 24.1072 188.834 22.488 189.632 20.8688L190.829 18.44H191.779C191.638 18.7216 191.451 19.1088 191.216 19.6016C191.005 20.0709 190.571 20.9275 189.914 22.1712C189.257 23.3915 188.623 24.4709 188.013 25.4096C187.426 26.3483 186.757 27.2048 186.006 27.9792C185.279 28.7301 184.645 29.1056 184.106 29.1056C182.369 29.1056 181.501 27.8384 181.501 25.304C181.501 24.4592 181.595 23.4736 181.782 22.3472H181.536C179.142 26.8059 177.136 29.0352 175.517 29.0352ZM190.281 29C189.624 29 189.295 28.4955 189.295 27.4864C189.295 26.9467 189.952 23.016 191.266 15.6944C191.36 15.2016 191.571 14.9552 191.9 14.9552C192.322 14.9552 192.639 15.2603 192.85 15.8704C192.968 16.1989 193.026 16.5627 193.026 16.9616C193.026 17.3371 192.979 17.7477 192.885 18.1936L192.322 21.08H192.498C194.516 16.3867 196.37 14.04 198.06 14.04C198.999 14.04 199.62 14.4976 199.925 15.4128C200.043 15.7648 200.101 16.1755 200.101 16.6448C200.101 17.0907 199.972 17.5835 199.714 18.1232C199.268 19.0384 198.6 19.496 197.708 19.496C197.52 19.496 197.368 19.4491 197.25 19.3552C197.156 19.2613 197.098 19.1323 197.074 18.968C197.262 18.968 197.508 18.6277 197.813 17.9472C198.119 17.2432 198.295 16.5979 198.341 16.0112C198.388 15.4245 198.189 15.0843 197.743 14.9904C196.922 14.9904 195.948 16.0581 194.821 18.1936C193.695 20.3291 192.792 22.3707 192.111 24.3184C191.431 26.2661 191.032 27.5333 190.914 28.12C190.797 28.7067 190.586 29 190.281 29ZM201.589 29C200.932 29 200.604 28.4955 200.604 27.4864C200.604 26.9467 201.261 23.016 202.575 15.6944C202.645 15.2016 202.856 14.9552 203.208 14.9552C203.631 14.9552 203.948 15.2603 204.159 15.8704C204.276 16.1989 204.335 16.5627 204.335 16.9616C204.335 17.3371 204.288 17.7477 204.194 18.1936L203.666 20.8688H203.877C205.942 16.2224 207.937 13.8992 209.861 13.8992C210.518 13.8992 211.035 14.1339 211.41 14.6032C211.809 15.0725 212.008 15.6357 212.008 16.2928C212.008 17.5131 211.821 19.0384 211.445 20.8688H211.586C213.581 16.5275 215.54 14.3568 217.464 14.3568C218.098 14.3568 218.614 14.5915 219.013 15.0608C219.412 15.5301 219.612 16.152 219.612 16.9264C219.612 17.7008 219.307 19.3435 218.696 21.8544C218.11 24.3653 217.816 26.1371 217.816 27.1696C217.816 28.6949 218.098 29.4576 218.661 29.4576C218.661 29.6219 218.556 29.7861 218.344 29.9504C218.133 30.1147 217.887 30.1968 217.605 30.1968C216.244 30.1968 215.564 29.1291 215.564 26.9936C215.564 25.656 215.904 23.7317 216.584 21.2208C217.265 18.6864 217.605 17.0672 217.605 16.3632C217.605 15.6357 217.371 15.272 216.901 15.272C216.033 15.272 215.012 16.328 213.839 18.44C212.689 20.5285 211.762 22.5349 211.058 24.4592C210.377 26.3835 209.979 27.6272 209.861 28.1904C209.744 28.7301 209.533 29 209.228 29C208.571 29 208.242 28.4955 208.242 27.4864C208.242 27.1109 208.441 25.7851 208.84 23.5088C209.615 19.3317 210.002 16.8443 210.002 16.0464C210.002 15.2251 209.767 14.8144 209.298 14.8144C208.664 14.8144 207.925 15.4715 207.08 16.7856C206.236 18.0763 205.473 19.5781 204.792 21.2912C203.314 24.9051 202.446 27.24 202.188 28.296C202.094 28.7653 201.894 29 201.589 29Z" fill="white"/>
<defs>
<clipPath id="clip0_421_244">
<rect width="61" height="33.0611" fill="white" transform="translate(0 1)"/>
</clipPath>
</defs>
</svg>
