<svg width="204" height="84" viewBox="0 0 204 84" fill="none" xmlns="http://www.w3.org/2000/svg">
<path d="M96.4694 52.2826C96.477 52.2565 96.4782 52.2306 96.4882 52.2047C98.0941 48.0559 98.0743 43.6663 96.4312 39.5251C94.7881 35.3839 91.586 31.6538 87.182 28.7505C87.1711 28.7435 87.1638 28.735 87.1526 28.7278H65.9568C67.0577 31.8795 67.614 35.1177 67.6131 38.3683C67.6131 53.9199 55.0033 67.9286 35.2959 74.5053C42.1843 77.4448 49.5931 79.6947 57.3193 81.1935C62.9038 82.2917 68.6014 83.0637 74.357 83.5021C74.357 83.4172 74.3556 83.3306 74.3556 83.2383C74.3571 77.1778 76.3652 71.2054 80.2123 65.8202C84.0593 60.435 89.6336 55.7932 96.4694 52.2826Z" fill="white"/>
<path d="M64.2759 38.3683C64.2762 35.1124 63.6805 31.8708 62.5042 28.7278H0C0.383698 44.7654 8.439 58.3721 23.3545 68.1399C26.0363 69.8914 28.8915 71.499 31.8974 72.9499C31.9056 72.9473 31.9124 72.9433 31.9209 72.9408C51.5758 67.0566 64.2759 53.4851 64.2759 38.3683ZM28.6978 45.9338C27.6668 45.9195 26.6646 45.6855 25.817 45.2612C24.9693 44.8368 24.314 44.241 23.9331 43.5485C23.5522 42.856 23.4628 42.0976 23.6761 41.3685C23.8894 40.6394 24.3958 39.972 25.1319 39.4501C25.868 38.9283 26.801 38.5751 27.8137 38.435C28.8265 38.2949 29.8739 38.374 30.8247 38.6625C31.7755 38.9509 32.5872 39.4359 33.158 40.0565C33.7289 40.6771 34.0334 41.4057 34.0334 42.1509C34.0199 43.1639 33.4501 44.1315 32.4495 44.8409C31.4489 45.5503 30.0994 45.9434 28.6978 45.9338Z" fill="white"/>
<path d="M211.644 1.5277C208.393 -0.156025 204.035 -0.0923755 201.758 0.0892365C204.588 13.4958 203.624 22.4436 202.587 27.0962C207.949 23.2823 217.012 15.5738 215.908 7.67642C215.513 4.85719 214.079 2.78838 211.644 1.5277Z" fill="white"/>
<path d="M100.468 50.4132C105.317 48.361 110.591 46.8874 116.089 46.0494C116.062 41.1565 114.627 36.3211 111.875 31.8504C111.225 30.7858 110.494 29.7396 109.705 28.7278H91.8594C95.4844 31.6301 98.1443 35.0923 99.6363 38.8505C101.128 42.6087 101.413 46.5635 100.468 50.4132Z" fill="#176D98"/>
<path d="M114.929 30.8752C117.787 35.5221 119.314 40.5392 119.418 45.624C128.971 44.626 138.72 45.547 147.597 48.2863C156.474 51.0256 164.136 55.4775 169.746 61.1544C170.262 60.8351 170.777 60.5154 171.288 60.1899C187.374 49.9496 199.34 37.5325 201.758 28.7273H113.501C114.007 29.4332 114.485 30.1501 114.929 30.8752Z" fill="white"/>
<path d="M126.944 61.9716C122.637 61.9613 118.37 62.5761 114.397 63.7795C110.424 64.9828 106.826 66.7502 103.816 68.977C98.3528 72.9499 95.1434 78.2557 94.8184 83.8518C96.8146 83.7716 98.8254 83.6598 100.851 83.5163C118.163 82.2809 135.708 77.7915 151.871 70.5913C145.879 65.0948 136.904 61.9716 126.944 61.9716Z" fill="white"/>
<path d="M126.945 47.646C99.7898 47.646 77.6963 63.6126 77.6963 83.2381C77.6963 83.4176 77.6983 83.5761 77.7021 83.7287C82.2825 83.9853 86.8789 84.0606 91.4706 83.9542C91.7608 77.6881 95.3203 71.7334 101.434 67.2856C104.755 64.8294 108.724 62.8799 113.106 61.5526C117.488 60.2252 122.194 59.5471 126.946 59.5584C138.067 59.5584 148.08 63.0911 154.708 69.2967C159.026 67.2657 163.189 65.067 167.177 62.71C162.631 58.0539 156.603 54.2552 149.602 51.6337C142.601 49.0122 134.83 47.6446 126.945 47.646Z" fill="#176D98"/>
</svg>
